<?xml version="1.0"?>
<svg xmlns="http://www.w3.org/2000/svg" height="512px" viewBox="-34 -18 585 585.33459" width="512px"><path d="m511.453125 211.320312-95.34375-80.734374v-15.058594c.003906-2.324219-.921875-4.546875-2.566406-6.183594l-106.785157-106.570312c-.027343-.023438-.054687-.039063-.078124-.0625-1.644532-1.730469-3.933594-2.710938-6.316407-2.710938-.332031 0-.660156.0195312-.984375.0585938l-.152344-.015625c-.292968-.0273438-.585937-.0429688-.878906-.0429688h-151.011718c-26.683594.0273438-48.300782 21.652344-48.335938 48.332031v82.308594l-94.828125 80.425781c-3.078125 1.433594-5.042969 4.515625-5.046875 7.910156v271.097657c.039062 32.390625 26.285156 58.636719 58.675781 58.675781h399.507813c32.390625-.039062 58.644531-26.285156 58.675781-58.675781v-271.097657c0-3.1875-1.734375-6.125-4.53125-7.65625zm-17.726563 7.890626-77.617187 65.832031v-131.554688zm-184.625-189.410157 77.367188 77.207031h-46.515625c-17.03125-.019531-30.832031-13.820312-30.851563-30.855468zm-161.765624-12.324219h144.289062v58.679688c.027344 26.679688 21.648438 48.304688 48.328125 48.332031h58.675781v175.378907l-114.355468 96.992187c-15.339844 13.082031-37.917969 13.09375-53.269532.023437l-114.523437-96.96875v-251.582031c.019531-17.03125 13.824219-30.835937 30.855469-30.855469zm-48.335938 136.078126v131.558593l-77.617188-65.726562zm-41.199219 377.71875c-9.015625.003906-17.785156-2.960938-24.945312-8.441407l119.476562-122.207031c3.328125-3.460938 3.238281-8.949219-.1875-12.304688-3.429687-3.351562-8.925781-3.3125-12.304687.085938l-118.367188 121.066406c-3.203125-5.964844-4.875-12.628906-4.871094-19.398437v-251.832031l85.574219 72.464843.007813.007813 117.523437 99.511718c21.867188 18.617188 54.019531 18.605469 75.867188-.035156l202.933593-172.109375v251.992188c.007813 6.792969-1.671874 13.484375-4.898437 19.46875l-119.070313-121.15625c-3.382812-3.4375-8.917968-3.484375-12.363281-.101563-3.4375 3.382813-3.488281 8.914063-.101562 12.359375l120.132812 122.21875c-7.152343 5.464844-15.902343 8.414063-24.898437 8.410157zm0 0" fill="#FFFFFF"/><path d="m144.558594 282.605469c3.742187 9.347656 12.191406 15.984375 22.160156 17.40625l28.140625 37.085937c9.242187 12.089844 26.523437 14.429688 38.648437 5.234375 12.128907-9.203125 14.53125-26.472656 5.382813-38.632812l-16.605469-21.890625 2.164063-.863282 102.554687.050782c2.902344 0 5.613282-1.4375 7.238282-3.839844 1.628906-2.402344 1.957031-5.449219.878906-8.144531l-16.875-42.273438c15.390625-8.28125 22.117187-26.792969 15.636718-43.023437-6.476562-16.230469-24.101562-25.019532-40.964843-20.429688l-16.886719-42.285156c-1.070312-2.695312-3.417969-4.679688-6.25-5.296875-2.835938-.621094-5.789062.207031-7.890625 2.207031l-74.289063 70.695313-43.378906 17.328125c-14.394531 5.769531-21.402344 22.101562-15.675781 36.507812zm80.402344 31.65625c2.246093 2.886719 2.757812 6.753906 1.351562 10.128906-1.402344 3.375-4.511719 5.734375-8.136719 6.179687-3.628906.441407-7.21875-1.097656-9.394531-4.035156l-22.894531-30.1875 19.5625-7.816406zm83.660156-133.335938c5.632812 2.414063 9.519531 7.683594 10.152344 13.78125.632812 6.089844-2.078126 12.054688-7.089844 15.574219l-12.1875-30.527344c3.089844-.46875 6.25-.0625 9.125 1.171875zm-44.023438-41.449219 15.066406 37.75c.054688.15625.097657.3125.164063.46875.058594.152344.128906.289063.199219.433594l34.082031 85.382813-85.414063-.042969-25.984374-65.113281zm-119.710937 88.367188c1.105469-2.59375 3.199219-4.636719 5.820312-5.675781l36.820313-14.710938 23.886718 59.875-36.828124 14.707031c-5.441407 2.179688-11.621094-.46875-13.796876-5.914062l-16.003906-40.160156c-1.054687-2.617188-1.015625-5.535156.101563-8.121094zm0 0" fill="#FFFFFF"/><path d="m337.132812 182.152344c2.15625 4.316406 7.410157 6.066406 11.726563 3.90625l22.46875-11.234375c4.316406-2.15625 6.070313-7.410157 3.90625-11.726563-2.152344-4.3125-7.40625-6.066406-11.722656-3.90625l-22.472657 11.238282c-4.316406 2.15625-6.066406 7.40625-3.90625 11.722656zm0 0" fill="#FFFFFF"/><path d="m369.824219 197.046875-18.726563-2.496094c-3.117187-.460937-6.238281.800781-8.171875 3.285157-1.929687 2.488281-2.378906 5.824218-1.164062 8.730468 1.214843 2.90625 3.898437 4.933594 7.027343 5.3125l18.726563 2.496094c4.746094.566406 9.070313-2.785156 9.699219-7.527344.636718-4.738281-2.660156-9.105468-7.390625-9.800781zm0 0" fill="#FFFFFF"/><path d="m325.058594 164.40625c3.734375 3.058594 9.242187 2.507812 12.292968-1.230469l11.238282-13.730469c3.058594-3.738281 2.507812-9.242187-1.230469-12.300781-3.734375-3.050781-9.242187-2.5-12.296875 1.234375l-11.238281 13.734375c-3.050781 3.734375-2.503907 9.242188 1.234375 12.292969zm0 0" fill="#FFFFFF"/></svg>
