<?xml version="1.0"?>
<svg xmlns="http://www.w3.org/2000/svg" height="512px" viewBox="-60 0 512 512" width="512px"><path d="m284.492188 332.527344c80.632812-74.972656 94.261718-97.605469 103.003906-140.855469 19.710937-99.496094-57.347656-191.109375-153.75-191.6601562l-.125-.0117188h-74.902344c-96.375 0-174.46875 91.46875-154.609375 191.730469 5.925781 29.308593 14.335937 49.300781 46.121094 83.625 13.960937 15.078125 32.78125 33.347656 58.425781 57.113281l-108.65625 100.980469h82.941406v78.195312c76.234375-68.039062 76.867188-67.003906 113.617188-99.414062 34.1875 30.714843 35.695312 32.003906 111.097656 99.769531v-78.550781h83.425781zm73.625-146.734375c-6.796876 33.628906-13.660157 50.152343-95.429688 126.089843l-44.515625-42.152343 62.105469-59.902344.199218.199219c1.699219-1.699219 3.257813-3.457032 4.683594-5.261719 37.160156-40.613281 45.851563-100.75 22.183594-149.714844 39.875 29.769531 60.824219 79.992188 50.773438 130.742188zm-228.566407-.171875c-10.636719-14.441406-4.683593-36.015625 7.582031-50.980469 8.128907-9.917969 32.25-16.84375 58.667969-16.84375 26.410157 0 50.535157 6.925781 58.664063 16.84375 12.261718 14.964844 18.214844 36.539063 7.578125 50.984375-.671875.710938-1.335938 1.425781-2.035157 2.128906l-63.617187 61.355469c-71.15625-67.375-64.363281-60.867187-66.839844-63.488281zm-22.386719-107.839844c9.789063-27.394531 29.320313-45.21875 52.34375-47.820312h72.582032c23.023437 2.601562 42.554687 20.425781 52.34375 47.820312 5.378906 15.058594 7.90625 34.730469 4.285156 55.019531-3.054688-6.128906-6.796875-11.921875-11.082031-17.152343-14.273438-17.414063-44.867188-27.8125-81.835938-27.8125-36.972656 0-67.570312 10.398437-81.839843 27.8125-4.289063 5.230468-8.027344 11.023437-11.082032 17.152343-3.621094-20.289062-1.097656-39.960937 4.285156-55.019531zm5.738282 367.246094v-41.539063h-36.652344l54.539062-50.683593c12.964844 11.832031 27.355469 24.847656 43.34375 39.25-18.667968 16.398437-38.5 33.167968-61.230468 52.972656zm164.792968-41.539063v41.3125c-217.21875-195.035156-233.949218-208.214843-244.207031-258.953125-10.058593-50.789062 10.777344-100.890625 50.71875-130.738281-24.21875 50.179687-14.714843 113.289063 26.910157 154.917969l.207031-.203125 204.535156 193.664062zm0 0" fill="#FFFFFF"/></svg>
